<svg version="1.1" id="Layer_1" xmlns="http://www.w3.org/2000/svg" xmlns:xlink="http://www.w3.org/1999/xlink" x="0px" y="0px"
	 width="100%" viewBox="0 0 2000 1247" enable-background="new 0 0 2000 1247" xml:space="preserve">
<path fill="#000000" opacity="1.000000" stroke="none" 
	d="
M682.775024,1.312611 
	C1120.784180,1.000000 1558.568359,1.008453 1996.352539,0.876990 
	C2000.624146,0.875707 2001.096924,2.010105 2001.095947,5.851457 
	C2000.993774,418.305145 2000.992798,830.758850 2001.104980,1243.212524 
	C2001.106079,1247.186890 2000.423462,1248.116333 1996.288574,1248.115112 
	C1558.838135,1247.992310 1121.387695,1248.000000 683.468628,1248.000000 
	C681.671387,1244.027954 684.645081,1244.009399 687.064392,1243.741821 
	C702.122009,1242.077026 717.150879,1240.226685 732.088135,1237.658813 
	C768.795837,1231.347900 804.611633,1221.768066 839.659424,1209.133057 
	C861.795837,1201.152466 883.380737,1191.905884 904.387329,1181.410034 
	C931.231079,1167.997559 957.012085,1152.704102 981.660217,1135.519775 
	C1002.863586,1120.737183 1023.125122,1104.767334 1042.354126,1087.529297 
	C1059.965576,1071.740967 1076.603638,1054.973755 1092.238892,1037.168945 
	C1113.054688,1013.464661 1132.162476,988.516052 1149.326416,962.067139 
	C1173.814331,924.332458 1193.814087,884.342651 1209.550659,842.203064 
	C1212.817139,833.456055 1215.676025,824.577393 1218.615112,815.723633 
	C1219.303589,813.649658 1220.884766,810.900146 1217.536011,809.809937 
	C1214.545776,808.836426 1211.347900,809.203003 1209.830322,812.570068 
	C1208.191284,816.206177 1207.126465,820.085388 1205.856934,823.869934 
	C1195.924194,853.481628 1183.456177,882.021423 1168.832153,909.573486 
	C1148.075439,948.679810 1123.561523,985.283752 1094.901733,1019.117249 
	C1078.830200,1038.089966 1061.730225,1056.078857 1043.603638,1073.011963 
	C1010.515259,1103.922119 974.341309,1130.809326 935.192078,1153.655762 
	C887.715942,1181.361328 837.433289,1202.246948 784.346069,1216.500732 
	C752.578613,1225.030396 720.306946,1230.742188 687.634155,1234.102173 
	C674.745178,1235.427490 661.802917,1236.471802 648.784729,1236.527466 
	C640.153259,1236.564331 631.519348,1237.639160 622.850830,1237.391846 
	C587.214233,1236.375244 551.759460,1233.668091 516.622742,1227.224976 
	C468.036346,1218.315552 421.180878,1203.847656 376.155853,1183.643799 
	C328.204376,1162.126831 283.769501,1134.771606 242.820007,1101.765625 
	C221.258240,1084.386230 200.895096,1065.701660 181.880783,1045.606567 
	C161.376434,1023.936768 142.539673,1000.861389 125.315521,976.461975 
	C106.921326,950.405212 90.669731,923.065186 76.631599,894.480347 
	C49.497334,839.228882 30.953960,781.181763 21.584713,720.279236 
	C18.699434,701.524231 16.613224,682.703064 15.336905,663.743835 
	C14.453020,650.614075 13.910444,637.415649 14.011143,624.366394 
	C14.148046,606.625427 14.672563,588.809509 16.340258,571.048279 
	C19.523531,537.146057 24.991598,503.693085 33.538200,470.742065 
	C43.016125,434.200348 55.842899,398.887695 71.841797,364.673920 
	C84.928360,336.688202 100.115700,309.922638 117.269516,284.282104 
	C134.701920,258.225067 154.164429,233.764297 175.354630,210.606094 
	C210.413269,172.291443 249.718765,139.062347 293.148895,110.705063 
	C341.721222,78.990273 393.843933,54.848434 449.385071,38.023430 
	C484.399200,27.416637 520.075684,20.074900 556.378540,15.867860 
	C572.563965,13.992176 588.827087,12.867325 605.154724,12.405555 
	C614.293945,12.147083 623.443665,11.413318 632.592163,11.652868 
	C675.948914,12.788146 718.935120,17.132414 761.306763,26.753733 
	C813.421326,38.587372 863.243896,56.710770 910.515259,81.614799 
	C949.985413,102.408913 986.837219,127.144386 1020.977112,155.961853 
	C1040.365479,172.327530 1058.662598,189.829056 1075.914062,208.331955 
	C1106.331543,240.955856 1132.744751,276.668518 1155.301270,315.203247 
	C1177.347290,352.865662 1195.317139,392.348999 1208.793213,433.866638 
	C1209.204468,435.133484 1209.560913,436.444519 1210.442139,437.483704 
	C1212.452148,439.854279 1215.169922,440.099792 1217.744507,439.113037 
	C1220.692993,437.982971 1219.328613,435.494110 1218.706055,433.527893 
	C1210.800049,408.557861 1201.120239,384.291504 1190.088989,360.534271 
	C1175.597900,329.326172 1158.462769,299.651978 1138.918579,271.366241 
	C1124.707886,250.799469 1109.359741,231.123856 1092.754639,212.400085 
	C1081.803711,200.051987 1070.587280,187.977417 1058.664307,176.590164 
	C1026.288940,145.669220 991.210449,118.218559 953.058533,94.712486 
	C937.869629,85.354340 922.343567,76.590279 906.434875,68.583321 
	C875.130798,52.827709 842.684082,39.797531 809.137817,29.577221 
	C779.128418,20.434479 748.591431,13.612718 717.572327,8.961188 
	C707.697937,7.480459 697.754517,6.520376 687.842346,5.325235 
	C685.477478,5.040094 682.472778,5.483665 682.775024,1.312611 
z"/>
<path fill="#000000" opacity="1.000000" stroke="none" 
	d="
M571.224976,1247.683594 
	C382.570343,1248.000000 194.140701,1247.982300 5.711152,1248.116089 
	C1.578723,1248.119019 0.891644,1247.189941 0.894058,1243.214478 
	C1.014770,1044.455566 1.000000,845.696411 1.000000,646.468628 
	C4.977756,644.681824 5.048420,647.643982 5.221699,650.075256 
	C5.659087,656.212158 5.771274,662.363586 6.170416,668.512268 
	C8.637897,706.523499 14.857762,743.906128 24.283323,780.770569 
	C33.177303,815.555969 45.323910,849.193787 60.118294,881.910339 
	C78.450638,922.450806 100.996628,960.502502 127.525078,996.166077 
	C141.537445,1015.003479 156.814178,1032.805786 172.755432,1050.089355 
	C200.771606,1080.464600 231.988037,1107.117676 265.429565,1131.191895 
	C298.234070,1154.807617 333.234253,1174.710327 370.067657,1191.417847 
	C405.380157,1207.435425 441.878754,1219.951050 479.542908,1229.053345 
	C508.062469,1235.945679 536.937378,1240.850220 566.153015,1243.693237 
	C568.523926,1243.923950 571.506836,1243.524170 571.224976,1247.683594 
z"/>
<path fill="#000000" opacity="1.000000" stroke="none" 
	d="
M1.316320,603.224915 
	C1.000000,403.907684 1.016437,204.815323 0.885602,5.723089 
	C0.882903,1.616099 1.772987,0.889677 5.773511,0.892306 
	C193.869843,1.015949 381.966278,1.000000 570.531372,1.000000 
	C572.322144,4.976785 569.350342,4.991311 566.927002,5.247927 
	C551.530945,6.878273 536.157898,8.667782 520.902588,11.354254 
	C481.753387,18.248447 443.494385,28.395977 406.308136,42.524921 
	C371.334290,55.813271 337.763947,71.988922 305.755981,91.354897 
	C275.778076,109.492607 247.330170,129.757797 220.896820,152.815460 
	C207.843567,164.201752 194.814224,175.614960 182.800140,188.101273 
	C158.522552,213.333115 136.005493,240.030273 116.021393,268.832458 
	C96.606857,296.813782 79.420616,326.083038 64.819496,356.847656 
	C49.214939,389.726562 36.510807,423.686737 26.802362,458.787720 
	C18.301495,489.522736 12.408699,520.751526 8.668869,552.376038 
	C6.912019,567.232178 5.464747,582.150940 5.282642,597.152771 
	C5.251723,599.699951 6.099760,603.255981 1.316320,603.224915 
z"/>
<path fill="#FF4057" opacity="1.000000" stroke="none" 
	d="
M1.000000,603.468628 
	C3.798677,603.700195 3.007768,601.416992 2.937860,600.328247 
	C2.350799,591.185669 3.340193,582.077942 4.166560,573.045044 
	C5.372644,559.861450 6.879997,546.692322 8.803275,533.558350 
	C12.065998,511.277313 16.424402,489.268158 21.969053,467.461517 
	C28.262730,442.709015 36.345837,418.553284 45.629345,394.774628 
	C54.116722,373.035187 64.036461,351.961273 74.961464,331.361969 
	C88.884361,305.110107 104.682732,280.045593 122.291885,256.077484 
	C137.502289,235.374359 153.996719,215.829834 171.363983,196.904083 
	C186.516678,180.391602 203.023346,165.435837 219.779449,150.657669 
	C239.479080,133.283417 260.578186,117.780518 282.361481,103.183838 
	C308.700745,85.534203 336.475708,70.389633 365.195526,57.034809 
	C389.069061,45.933521 413.623932,36.474274 438.777954,28.643808 
	C463.936401,20.811996 489.475189,14.557568 515.428894,9.920655 
	C529.440857,7.417270 543.535095,5.674038 557.615784,3.728446 
	C562.207214,3.094018 567.205505,4.567532 571.244507,1.388785 
	C608.020874,1.000000 645.041809,1.000000 682.531372,1.000000 
	C682.086731,2.806477 683.550964,2.925692 684.575500,2.937548 
	C694.791748,3.055771 704.825989,4.961195 714.932617,6.087008 
	C723.361267,7.025896 731.744812,8.512996 740.080750,10.109919 
	C757.319763,13.412392 774.421265,17.336922 791.363159,21.957355 
	C814.583374,28.290033 837.338745,35.950169 859.697754,44.877922 
	C875.743774,51.285004 891.544617,58.247448 906.904053,66.086746 
	C941.689880,83.841110 974.881042,104.182983 1005.799011,128.178497 
	C1021.673340,140.498627 1036.941406,153.453491 1051.765015,167.021454 
	C1061.214844,175.670746 1070.409546,184.563919 1079.171997,193.844345 
	C1097.685181,213.451477 1115.130859,234.005295 1130.969238,255.868912 
	C1149.173950,280.999115 1165.644531,307.193146 1180.014893,334.730408 
	C1192.226074,358.129791 1202.847290,382.186188 1212.119507,406.889313 
	C1216.398071,418.288391 1219.837158,429.939758 1224.220825,442.000122 
	C1220.148682,442.000122 1216.536377,441.805084 1212.955933,442.058380 
	C1209.775757,442.283386 1208.387939,441.128296 1207.427734,438.029785 
	C1197.041870,404.513550 1183.378540,372.342377 1167.032715,341.315948 
	C1152.109253,312.989563 1135.122314,285.960083 1115.896484,260.329468 
	C1103.764893,244.156357 1090.884521,228.653809 1077.317627,213.651855 
	C1062.588989,197.365067 1046.997192,181.961578 1030.671509,167.367020 
	C1005.767822,145.104004 978.936462,125.236656 950.683838,107.431366 
	C929.859253,94.307335 908.296692,82.370872 885.927551,72.034401 
	C853.875244,57.223396 820.887939,44.998219 786.742371,35.774574 
	C765.174927,29.948616 743.422668,25.383659 721.381470,21.881180 
	C707.780640,19.719940 694.151184,18.157539 680.447449,16.858774 
	C668.417603,15.718641 656.372192,15.549579 644.359192,14.757893 
	C635.234558,14.156562 626.103210,13.592912 617.056274,14.149514 
	C598.820923,15.271420 580.558350,15.762411 562.346802,17.782610 
	C542.021423,20.037300 521.849670,23.044666 501.849335,27.107792 
	C485.621460,30.404541 469.526978,34.426563 453.644287,39.157036 
	C432.620026,45.418869 411.891388,52.632050 391.716309,61.212086 
	C370.431915,70.263901 349.547333,80.182053 329.414307,91.710205 
	C313.692017,100.712784 298.210175,110.044060 283.273010,120.267586 
	C267.484070,131.074112 252.321365,142.698105 237.493210,154.820297 
	C217.965134,170.784714 199.640427,188.012451 182.374207,206.307220 
	C161.984253,227.911758 143.252808,250.957397 126.263329,275.366150 
	C111.548943,296.506317 98.320236,318.535126 86.205261,341.278748 
	C72.866646,366.319550 61.857349,392.338837 52.050629,418.909668 
	C43.543411,441.959564 36.879539,465.581390 31.402842,489.486847 
	C27.803391,505.198212 24.924187,521.095276 22.862503,537.143860 
	C20.748755,553.597717 18.718908,570.008362 17.741684,586.595764 
	C17.292976,594.212097 17.117844,601.809753 17.102432,609.406982 
	C17.093639,613.740662 15.922126,617.940125 16.056545,622.200684 
	C16.588703,639.067688 16.716818,655.980286 18.134050,672.779846 
	C21.281673,710.091125 27.479702,746.974365 37.197254,783.136536 
	C44.577217,810.599854 53.990128,837.434692 65.188118,863.629761 
	C80.996803,900.610474 100.312019,935.645142 123.004585,968.815063 
	C133.523666,984.190857 144.869476,998.944153 156.700165,1013.363586 
	C172.375931,1032.469360 189.192566,1050.489868 207.101746,1067.442383 
	C225.101578,1084.480591 244.167343,1100.300659 264.100708,1115.104858 
	C283.378113,1129.421875 303.387878,1142.603271 324.205505,1154.462524 
	C344.302917,1165.911499 364.917633,1176.401489 386.363647,1185.282593 
	C405.757477,1193.313843 425.273163,1200.889282 445.325714,1207.088623 
	C469.579926,1214.587036 494.145630,1220.744141 519.184021,1225.058838 
	C536.931641,1228.117310 554.703613,1230.694946 572.677551,1232.144165 
	C584.375488,1233.087402 596.082825,1233.448730 607.761353,1234.240845 
	C616.218872,1234.814697 624.659119,1235.206421 633.070312,1234.895996 
	C651.044312,1234.232544 669.075073,1233.724854 686.940308,1231.819580 
	C713.697632,1228.965942 740.217041,1224.502563 766.499634,1218.393066 
	C796.494812,1211.420166 825.756226,1202.205200 854.225586,1190.738281 
	C884.774292,1178.433838 914.226868,1163.772583 942.364380,1146.441040 
	C962.513367,1134.030029 982.109863,1120.862427 1000.796326,1106.430298 
	C1013.414551,1096.684937 1025.487183,1086.196289 1037.312256,1075.424438 
	C1048.763428,1064.993286 1059.694214,1054.059570 1070.400879,1042.927734 
	C1087.500122,1025.149658 1103.345093,1006.223999 1117.883301,986.293030 
	C1141.074463,954.499634 1161.452637,920.973999 1178.242554,885.335999 
	C1187.942749,864.746460 1196.571899,843.712280 1203.936035,822.168762 
	C1205.302002,818.172607 1206.909790,814.223267 1207.828491,810.122925 
	C1208.410522,807.524841 1209.627197,806.933777 1211.911621,806.979736 
	C1215.735229,807.056641 1219.561279,807.000793 1224.081787,807.000793 
	C1220.855591,816.842041 1218.026245,826.387756 1214.604858,835.716248 
	C1207.831543,854.182922 1200.312500,872.345520 1192.011963,890.196716 
	C1177.043579,922.387817 1159.143433,952.872925 1138.894775,981.975769 
	C1127.293579,998.649780 1114.724487,1014.593384 1101.549194,1030.088623 
	C1087.895874,1046.145874 1073.618286,1061.598389 1058.320557,1076.048950 
	C1038.240723,1095.016846 1017.175415,1112.837280 994.784912,1129.098633 
	C968.604248,1148.112427 941.243225,1165.135742 912.463196,1179.907959 
	C889.413330,1191.739014 865.770752,1202.154419 841.431396,1211.092285 
	C816.684509,1220.179932 791.446228,1227.527222 765.819824,1233.518066 
	C750.436707,1237.114136 734.885925,1239.981934 719.193359,1242.087646 
	C707.660095,1243.635254 696.186768,1245.584351 684.533203,1246.027222 
	C683.616272,1246.062134 682.981689,1246.508057 682.746094,1247.616455 
	C645.979126,1248.000000 608.958191,1248.000000 571.468628,1248.000000 
	C571.872437,1246.164795 570.411621,1246.063354 569.361389,1246.057129 
	C559.635559,1245.999023 550.108765,1244.120483 540.495728,1243.025391 
	C526.054932,1241.380371 511.781097,1238.665161 497.589722,1235.705933 
	C471.186981,1230.200439 445.242767,1222.915771 419.748322,1214.044800 
	C388.442719,1203.151978 358.370850,1189.465698 329.132935,1173.953003 
	C311.555847,1164.627197 294.600342,1154.182373 278.155334,1142.977051 
	C260.034180,1130.629761 242.468552,1117.552734 225.694672,1103.364136 
	C209.141235,1089.361816 192.873291,1075.056519 177.988403,1059.326660 
	C160.579727,1040.929810 143.944656,1021.850769 128.685959,1001.545532 
	C114.932404,983.243103 102.069885,964.399902 90.322784,944.784424 
	C76.908752,922.385498 64.995232,899.223755 54.553425,875.261902 
	C45.586266,854.684143 37.651154,833.761047 30.784924,812.408020 
	C22.905989,787.905640 16.779005,762.940063 12.196739,737.652222 
	C9.490196,722.715759 7.257513,707.660095 5.885810,692.483765 
	C4.564780,677.868103 2.799853,663.302795 2.996164,648.594604 
	C3.011924,647.413818 3.032330,646.231445 1.398124,645.771484 
	C1.000000,631.979126 1.000000,617.958191 1.000000,603.468628 
z"/>
<path fill="#FF4057" opacity="1.000000" stroke="none" 
	d="
M897.999939,593.029907 
	C900.550537,612.718079 898.792236,631.449524 890.972595,649.333130 
	C884.312744,664.564209 873.954590,676.635071 859.376953,684.931946 
	C849.386230,690.618286 838.518250,694.115173 827.211853,693.790283 
	C807.432129,693.221985 794.958740,690.370239 779.232605,671.268005 
	C779.140686,673.295166 779.009399,674.848389 779.008789,676.401550 
	C778.996521,705.734131 778.929321,735.067017 779.088196,764.398743 
	C779.108215,768.093506 778.262573,769.312561 774.447266,769.091736 
	C768.467468,768.745667 762.434631,768.715942 756.459473,769.099731 
	C752.468262,769.356018 751.920349,767.830383 751.925720,764.305420 
	C752.026550,697.807373 751.999939,631.309021 752.000000,564.810791 
	C752.000000,553.477783 752.114685,542.142822 751.925720,530.812927 
	C751.873840,527.700989 752.762024,526.788147 755.839417,526.931763 
	C761.161011,527.180176 766.504395,527.083374 771.834900,526.962891 
	C774.077820,526.912231 774.899963,527.449951 775.096008,529.945740 
	C775.605042,536.427795 776.595581,542.872009 777.474487,549.981873 
	C782.212524,543.101807 787.206543,537.035095 793.864075,532.558655 
	C807.052612,523.690735 821.407532,521.634949 836.988708,523.833130 
	C869.723877,528.451477 890.359436,556.117126 896.925659,584.301758 
	C897.553345,586.996155 897.654236,589.813354 897.999939,593.029907 
z"/>
<path fill="#FF4057" opacity="1.000000" stroke="none" 
	d="
M515.000000,491.938171 
	C514.999146,499.999725 514.999146,499.999817 507.427979,499.999847 
	C477.101624,499.999908 446.774872,500.077179 416.449432,499.909119 
	C412.327209,499.886322 410.791504,500.512207 410.865021,505.198517 
	C411.181091,525.355591 411.089386,545.521240 410.915619,565.681763 
	C410.885254,569.200500 411.829102,570.098938 415.328735,570.081909 
	C444.821228,569.938232 474.315186,570.076965 503.807434,569.908936 
	C507.772003,569.886353 509.495483,570.556091 509.097778,574.963379 
	C508.665283,579.756592 508.729279,584.639038 509.085571,589.444885 
	C509.368317,593.258362 508.100372,594.109009 504.402039,594.088806 
	C475.242981,593.929077 446.081787,594.111267 416.923584,593.886169 
	C412.280426,593.850403 410.781403,594.713135 410.861603,599.724854 
	C411.192261,620.381531 411.090576,641.047241 410.913696,661.707642 
	C410.883209,665.266907 411.895203,666.094482 415.354401,666.079590 
	C446.846558,665.944153 478.339966,666.075256 509.831818,665.906677 
	C513.836182,665.885254 515.483459,666.623108 515.096680,670.987122 
	C514.671814,675.781738 514.721802,680.664246 515.087769,685.468567 
	C515.381470,689.324890 514.037659,690.105408 510.380402,690.086792 
	C480.388062,689.934387 450.394653,690.000793 420.401550,690.000732 
	C409.570709,690.000732 398.738464,689.905029 387.909943,690.063354 
	C384.972656,690.106384 383.920532,689.490540 383.925171,686.263855 
	C384.024231,617.446533 384.021515,548.629028 383.931396,479.811646 
	C383.927307,476.709045 384.773346,475.925171 387.834808,475.932678 
	C428.991760,476.033569 470.149139,476.041748 511.305969,475.921631 
	C514.597229,475.912018 515.210754,477.077850 515.051758,479.954987 
	C514.840698,483.775665 514.999878,487.616760 515.000000,491.938171 
z"/>
<path fill="#FF4057" opacity="1.000000" stroke="none" 
	d="
M1501.162720,772.999634 
	C1488.276978,772.083069 1476.845581,768.077820 1466.037231,762.040100 
	C1464.733154,761.311584 1463.992432,760.545471 1463.997192,759.027405 
	C1464.021118,751.444946 1464.008301,743.862244 1464.008301,735.457947 
	C1467.307495,737.595520 1469.788696,739.344849 1472.400391,740.870728 
	C1483.542725,747.380310 1495.092773,751.358826 1508.178833,747.062378 
	C1516.002197,744.493774 1520.118530,738.227905 1523.981323,731.785950 
	C1529.630249,722.365051 1531.862671,711.500488 1536.181641,701.552856 
	C1540.795532,690.925598 1536.820312,682.079712 1532.957520,672.780945 
	C1522.551880,647.731628 1512.220093,622.651489 1501.923584,597.557129 
	C1494.220093,578.782471 1486.654907,559.951172 1478.943115,541.179993 
	C1477.044189,536.557678 1474.681030,532.121582 1473.360962,527.000977 
	C1482.695068,527.000977 1491.691406,527.109741 1500.682007,526.929749 
	C1503.143188,526.880493 1504.184570,527.863159 1504.962769,529.930603 
	C1519.312500,568.048279 1533.684692,606.157532 1548.087524,644.255127 
	C1549.392578,647.707031 1550.940430,651.067139 1552.592773,654.984741 
	C1558.828735,633.894775 1564.918579,613.373413 1570.962524,592.838562 
	C1577.010376,572.290161 1583.052002,551.739685 1588.990967,531.159668 
	C1589.869995,528.113647 1591.068726,526.674255 1594.642212,526.886902 
	C1601.284180,527.282227 1607.969482,527.122437 1614.630371,526.950928 
	C1618.068726,526.862427 1618.486206,528.057068 1617.511963,531.085999 
	C1612.890747,545.454041 1608.464844,559.884827 1603.918457,574.277161 
	C1594.778687,603.210510 1585.584351,632.126648 1576.453369,661.062744 
	C1569.275269,683.810181 1562.441162,706.670959 1554.911743,729.300842 
	C1550.091187,743.788757 1542.550781,756.789185 1529.647339,765.799927 
	C1521.260376,771.656738 1511.575806,772.955078 1501.162720,772.999634 
z"/>
<path fill="#FF4057" opacity="1.000000" stroke="none" 
	d="
M1048.739990,538.240601 
	C1062.584229,550.937134 1068.273438,567.061218 1071.124268,584.738708 
	C1072.409302,592.706543 1071.401001,600.624329 1072.074951,608.522827 
	C1072.412598,612.479675 1070.886230,613.092529 1067.326782,613.078796 
	C1033.176514,612.947266 999.025208,613.059692 964.875061,612.916260 
	C961.082153,612.900330 959.452271,613.686035 959.960449,617.757996 
	C961.668945,631.448486 964.270569,644.644165 973.231689,655.966919 
	C978.707886,662.886292 985.450073,667.073364 993.696228,669.257874 
	C1006.765259,672.720032 1019.246033,671.670288 1030.776733,664.040894 
	C1037.406006,659.654602 1041.289429,653.348755 1042.927856,645.740662 
	C1043.709717,642.110107 1045.176025,640.689392 1049.053101,640.902832 
	C1055.530396,641.259460 1062.046143,641.141846 1068.536743,640.937256 
	C1071.461182,640.845032 1072.576538,641.859741 1071.953491,644.618530 
	C1067.345825,665.018372 1055.809082,679.690063 1036.394043,688.053528 
	C1026.425781,692.347656 1015.905151,694.246643 1005.322205,693.834839 
	C977.834717,692.765015 957.359863,680.042297 943.834778,655.713989 
	C933.185974,636.559265 931.628967,615.928833 933.218018,595.003845 
	C934.749756,574.832703 941.884888,556.312561 956.738586,541.978333 
	C969.386475,529.772888 984.937805,523.517761 1002.727844,522.948120 
	C1017.689575,522.469055 1031.733032,524.959717 1044.054688,534.037598 
	C1045.641724,535.206848 1047.014893,536.666260 1048.739990,538.240601 
z"/>
<path fill="#FF4057" opacity="1.000000" stroke="none" 
	d="
M663.334717,528.710632 
	C678.501038,534.634583 688.630432,544.589355 691.939392,560.557922 
	C692.660767,564.038940 692.158325,566.479370 687.325195,566.115723 
	C681.029541,565.642090 674.670654,566.045776 668.340637,565.956238 
	C667.208008,565.940247 665.466797,566.794250 665.065491,564.785889 
	C662.905273,553.973389 655.269958,549.106628 645.408691,546.830627 
	C631.649963,543.655090 618.089966,543.239014 605.456604,550.944275 
	C600.586975,553.914368 596.589233,557.844116 595.056946,563.538330 
	C592.939087,571.408386 596.353333,578.789734 603.923523,584.008606 
	C612.273315,589.765015 622.150513,591.600220 631.426208,594.962036 
	C646.080139,600.273071 661.494202,603.653320 675.273193,611.157959 
	C685.814697,616.899475 694.697693,624.283569 697.190979,637.263428 
	C699.500732,649.287720 697.286072,660.048157 689.841553,669.575989 
	C677.779236,685.014038 661.257446,691.356384 642.187256,693.127380 
	C626.258606,694.606567 610.797913,693.198730 595.792603,687.955811 
	C577.117737,681.430908 565.187683,668.557922 561.067566,648.944092 
	C559.642029,642.157837 560.682800,641.000793 567.681030,641.000061 
	C569.013916,640.999878 570.346863,640.999390 571.679749,641.000122 
	C576.011658,641.002380 580.568726,640.154663 584.617676,641.226379 
	C589.502319,642.519165 587.490173,648.210815 589.117554,651.758362 
	C594.167480,662.766907 603.604492,667.637512 614.328064,669.765930 
	C626.951050,672.271423 640.015259,672.789246 651.961121,666.831482 
	C664.255554,660.699768 670.924011,652.303162 667.105042,639.103638 
	C665.487488,633.512756 661.249207,630.535034 656.514160,628.255981 
	C645.210693,622.815735 632.987000,619.920593 621.122681,616.054321 
	C607.670715,611.670532 594.020752,607.948364 582.455811,599.171021 
	C572.187012,591.377380 566.664856,581.602722 565.830322,568.419189 
	C564.396240,545.765137 581.913025,532.462891 598.728027,526.996521 
	C611.806274,522.744934 625.314758,522.328674 638.795959,523.156921 
	C647.022400,523.662354 655.358215,524.807678 663.334717,528.710632 
z"/>
<path fill="#FF4057" opacity="1.000000" stroke="none" 
	d="
M1376.000000,574.000000 
	C1375.999878,565.667358 1375.823242,557.828857 1376.081909,550.004761 
	C1376.194458,546.601501 1375.013184,545.817871 1371.852417,545.933899 
	C1365.694580,546.159912 1359.519653,545.887878 1353.357910,546.051697 
	C1350.776245,546.120300 1349.811035,545.395325 1349.946411,542.706421 
	C1350.155762,538.550659 1350.165894,534.367920 1349.944458,530.213379 
	C1349.795532,527.419250 1350.974976,526.901917 1353.438721,526.955322 
	C1359.768555,527.092651 1366.107788,526.861206 1372.434204,527.062012 
	C1375.297119,527.152954 1376.093018,526.243835 1376.060913,523.416199 
	C1375.919189,510.918884 1376.082764,498.418121 1375.938721,485.920868 
	C1375.905029,483.000580 1376.470459,481.784882 1379.730713,481.920654 
	C1386.218872,482.190826 1392.733521,482.180969 1399.222656,481.923645 
	C1402.408447,481.797333 1403.106445,482.875031 1403.066772,485.874329 
	C1402.905518,498.037781 1403.144897,510.207428 1402.911865,522.368530 
	C1402.841919,526.017334 1403.666382,527.171631 1407.518921,527.101135 
	C1421.513062,526.845154 1435.517700,527.162048 1449.511475,526.896179 
	C1453.420288,526.821899 1454.383179,528.057129 1454.065918,531.666565 
	C1453.760864,535.139465 1453.798950,538.675232 1454.059937,542.155334 
	C1454.290405,545.228394 1453.310059,546.111755 1450.192261,546.074341 
	C1436.028809,545.904114 1421.860840,546.112366 1407.697998,545.920715 
	C1404.171509,545.873108 1402.873535,546.484253 1402.896362,550.450867 
	C1403.081055,582.613586 1402.812500,614.779846 1403.138672,646.940369 
	C1403.215454,654.500977 1404.619141,662.170227 1411.655273,667.208557 
	C1415.090820,669.668640 1418.875122,670.648254 1422.986328,671.024292 
	C1434.065308,672.037903 1444.300171,668.627258 1454.526855,664.953918 
	C1455.683838,670.121582 1456.898682,675.018311 1457.844727,679.966431 
	C1458.438843,683.073792 1458.465820,685.620789 1454.307861,687.083557 
	C1443.772583,690.790039 1433.126709,694.339844 1421.934937,693.848328 
	C1406.178711,693.156433 1391.881592,688.427612 1382.807373,674.201416 
	C1377.760010,666.288635 1376.207764,657.140808 1376.099121,647.992126 
	C1375.808350,623.497803 1376.000000,598.997742 1376.000000,574.000000 
z"/>
<path fill="#FF4057" opacity="1.000000" stroke="none" 
	d="
M1249.000000,636.999329 
	C1249.000000,607.848267 1248.921509,579.196472 1249.094360,550.546265 
	C1249.117188,546.758423 1248.113892,545.706116 1244.397705,545.913879 
	C1238.585571,546.238770 1232.736816,545.853821 1226.914062,546.060852 
	C1223.976318,546.165405 1222.686279,545.517273 1222.929810,542.261902 
	C1223.227295,538.286255 1223.160156,534.263062 1222.946655,530.276611 
	C1222.801514,527.566772 1223.817139,526.881653 1226.373291,526.950134 
	C1232.365723,527.110596 1238.376709,526.778687 1244.358032,527.082642 
	C1247.999756,527.267761 1249.190552,526.363586 1249.102173,522.492432 
	C1248.824707,510.338623 1249.125610,498.172363 1248.919067,486.015747 
	C1248.861938,482.644775 1249.949951,481.812866 1253.132446,481.932770 
	C1259.286987,482.164612 1265.465454,482.198425 1271.616333,481.922577 
	C1275.050049,481.768585 1276.158691,482.665649 1276.089111,486.265503 
	C1275.854370,498.421082 1276.146240,510.586853 1275.910278,522.742371 
	C1275.840210,526.352417 1276.978516,527.125366 1280.388550,527.079712 
	C1294.545044,526.890259 1308.706543,527.089233 1322.863892,526.932251 
	C1326.028320,526.897156 1327.326294,527.617859 1327.063843,531.014343 
	C1326.694458,535.794189 1328.560303,542.065491 1326.164917,545.009644 
	C1323.626953,548.129028 1317.120361,545.881226 1312.357422,545.950439 
	C1301.532227,546.107849 1290.701538,546.103149 1279.876709,545.933655 
	C1276.884521,545.886780 1275.913818,546.593262 1275.925415,549.768677 
	C1276.046753,582.917114 1275.732300,616.069397 1276.138184,649.213257 
	C1276.290161,661.627258 1283.314087,671.870483 1298.129883,671.038696 
	C1303.206787,670.753723 1308.289795,671.241760 1313.259521,669.431702 
	C1317.813599,667.773071 1322.557617,666.636230 1327.441895,665.203857 
	C1328.598633,670.768555 1329.804077,676.414673 1330.932373,682.076172 
	C1331.342407,684.133301 1330.510986,685.360168 1328.455078,686.258545 
	C1317.726807,690.946106 1306.542603,694.274231 1294.865601,693.849365 
	C1276.863892,693.194336 1261.565674,686.939270 1253.207764,669.462769 
	C1250.434814,663.664368 1249.206055,657.407776 1249.024536,650.991455 
	C1248.897339,646.497375 1249.000000,641.996826 1249.000000,636.999329 
z"/>
<path fill="#FF4057" opacity="1.000000" stroke="none" 
	d="
M1141.952393,527.000061 
	C1150.999756,527.000244 1150.998535,527.000244 1151.000366,535.585876 
	C1151.001465,540.749756 1151.004883,545.913635 1151.018066,551.077515 
	C1151.018799,551.397400 1151.113403,551.717102 1151.263428,552.659607 
	C1154.469360,548.129883 1156.646362,543.479370 1159.775513,539.413757 
	C1167.023682,529.996460 1176.657104,525.139099 1188.133423,524.126404 
	C1195.302124,523.493896 1202.628418,523.468994 1209.636230,525.999695 
	C1211.952148,526.835999 1212.877808,527.360657 1212.436157,530.702148 
	C1211.447266,538.182190 1211.980469,545.859741 1210.555542,553.570679 
	C1204.447144,552.401611 1198.196045,550.318909 1191.899292,550.170471 
	C1174.741089,549.766235 1163.446289,557.698303 1157.065186,574.119385 
	C1152.694946,585.365234 1151.069214,597.164673 1151.027100,609.161621 
	C1150.937866,634.647705 1150.933838,660.134705 1151.077515,685.620361 
	C1151.096802,689.039124 1150.341431,690.262146 1146.730713,690.086426 
	C1140.415649,689.779053 1134.057861,689.718872 1127.751099,690.101318 
	C1123.638306,690.350647 1122.911377,688.854553 1122.920776,685.095642 
	C1123.041260,637.121521 1122.973267,589.146851 1123.043579,541.172546 
	C1123.050293,536.576050 1121.000977,530.463928 1123.968994,527.812012 
	C1126.511719,525.540100 1132.497925,527.112305 1136.961792,527.005737 
	C1138.460083,526.969971 1139.960083,527.000061 1141.952393,527.000061 
z"/>
<path fill="#000000" opacity="1.000000" stroke="none" 
	d="
M792.252441,656.750732 
	C783.388428,647.805054 779.619751,636.985840 779.098267,625.102966 
	C778.631165,614.459167 778.706909,603.768860 779.062805,593.116394 
	C779.741455,572.800598 790.495361,554.415955 811.707825,548.718506 
	C826.782166,544.669739 840.172668,548.103577 851.721497,558.304749 
	C863.327332,568.556213 868.397461,581.868896 870.183350,597.122498 
	C871.966797,612.355652 870.525391,626.834290 864.020325,640.683350 
	C856.813293,656.027161 844.768250,665.965027 828.117249,668.670898 
	C814.726685,670.846863 802.598694,666.334290 792.252441,656.750732 
z"/>
<path fill="#000000" opacity="1.000000" stroke="none" 
	d="
M1044.655762,595.935059 
	C1017.886780,595.988953 991.587830,595.943298 965.289673,596.056030 
	C961.393066,596.072754 959.653809,596.238220 960.734009,590.906982 
	C962.627563,581.560974 964.810181,572.492554 970.192566,564.554626 
	C977.419800,553.896057 987.153381,547.595581 1000.314331,545.691650 
	C1013.582153,543.772278 1024.735718,546.835876 1033.745117,556.417786 
	C1040.890869,564.017639 1043.844727,573.794434 1044.875488,583.982056 
	C1045.270142,587.882019 1047.674438,591.886719 1044.655762,595.935059 
z"/>
</svg>